<svg width="25" height="22" viewBox="0 0 25 22" fill="none" xmlns="http://www.w3.org/2000/svg">
<path d="M13.4495 1.41885L13.8646 1.14006L13.8369 1.09889L13.8017 1.06395L13.4495 1.41885ZM18.0917 8.32983L17.6767 8.60863L17.8253 8.82983H18.0917V8.32983ZM11.7615 1.41885L12.1765 1.69765L12.1765 1.69764L11.7615 1.41885ZM7.11927 8.32983V8.82983H7.38574L7.53432 8.60863L7.11927 8.32983ZM1 9.6911H0.5V9.75762L0.517389 9.82182L1 9.6911ZM3.63761 19.4293L4.12255 19.3072L4.12023 19.2986L3.63761 19.4293ZM21.3624 19.4293L20.8798 19.2986L20.8769 19.3093L20.8745 19.3201L21.3624 19.4293ZM24 9.6911L24.4826 9.82182L24.5 9.75762V9.6911H24ZM12.6056 3.72266L13.0177 3.43954L12.6056 2.83963L12.1934 3.43954L12.6056 3.72266ZM9.44043 8.32999L9.02831 8.04687L8.49032 8.82999H9.44043V8.32999ZM15.7707 8.32999V8.82999H16.7208L16.1828 8.04687L15.7707 8.32999ZM13.0345 1.69765L17.6767 8.60863L18.5068 8.05104L13.8646 1.14006L13.0345 1.69765ZM12.6055 1.5C12.7239 1.5 12.9192 1.59698 13.0973 1.77376L13.8017 1.06395C13.5578 0.821845 13.1201 0.5 12.6055 0.5V1.5ZM12.1765 1.69764C12.2687 1.56049 12.4028 1.5 12.6055 1.5V0.5C12.1752 0.5 11.6763 0.648922 11.3464 1.14006L12.1765 1.69764ZM7.53432 8.60863L12.1765 1.69765L11.3464 1.14006L6.70421 8.05104L7.53432 8.60863ZM2.05505 8.82983H7.11927V7.82983H2.05505V8.82983ZM1.5 9.37695C1.5 9.17758 1.56468 9.04978 1.64236 8.97268C1.72037 8.89525 1.85103 8.82983 2.05505 8.82983V7.82983C1.62603 7.82983 1.22917 7.97385 0.937919 8.26291C0.646334 8.55231 0.5 8.94806 0.5 9.37695H1.5ZM1.5 9.6911V9.37695H0.5V9.6911H1.5ZM4.12023 19.2986L1.48261 9.56038L0.517389 9.82182L3.155 19.56L4.12023 19.2986ZM5.6422 20.5C4.9368 20.5 4.28128 19.9377 4.12247 19.3072L3.15276 19.5515C3.41597 20.5964 4.44852 21.5 5.6422 21.5V20.5ZM19.3578 20.5H5.6422V21.5H19.3578V20.5ZM20.8745 19.3201C20.7179 20.0194 20.0887 20.5 19.3578 20.5V21.5C20.526 21.5 21.5849 20.7241 21.8503 19.5386L20.8745 19.3201ZM23.5174 9.56038L20.8798 19.2986L21.845 19.56L24.4826 9.82182L23.5174 9.56038ZM23.5 9.37695V9.6911H24.5V9.37695H23.5ZM22.945 8.82983C23.149 8.82983 23.2796 8.89525 23.3576 8.97268C23.4353 9.04977 23.5 9.17758 23.5 9.37695H24.5C24.5 8.94806 24.3537 8.55231 24.0621 8.26291C23.7708 7.97385 23.374 7.82983 22.945 7.82983V8.82983ZM18.0917 8.82983H22.945V7.82983H18.0917V8.82983ZM12.1934 3.43954L9.02831 8.04687L9.85255 8.6131L13.0177 4.00577L12.1934 3.43954ZM16.1828 8.04687L13.0177 3.43954L12.1934 4.00577L15.3586 8.6131L16.1828 8.04687ZM9.44043 8.82999H15.7707V7.82999H9.44043V8.82999ZM12.6055 16.2068C11.7175 16.2068 10.9954 15.4847 10.9954 14.6125H9.99536C9.99536 16.0441 11.1723 17.2068 12.6055 17.2068V16.2068ZM14.2155 14.6125C14.2155 15.4847 13.4934 16.2068 12.6055 16.2068V17.2068C14.0386 17.2068 15.2155 16.0441 15.2155 14.6125H14.2155ZM12.6055 13.0183C13.4934 13.0183 14.2155 13.7404 14.2155 14.6125H15.2155C15.2155 13.181 14.0386 12.0183 12.6055 12.0183V13.0183ZM10.9954 14.6125C10.9954 13.7404 11.7175 13.0183 12.6055 13.0183V12.0183C11.1723 12.0183 9.99536 13.181 9.99536 14.6125H10.9954Z" fill="#D93C47"/>
</svg>
